<?xml version="1.0" standalone="no"?>
<!DOCTYPE svg PUBLIC "-//W3C//DTD SVG 20010904//EN"
 "http://www.w3.org/TR/2001/REC-SVG-20010904/DTD/svg10.dtd">
<svg version="1.0" xmlns="http://www.w3.org/2000/svg"
 width="1161.000000pt" height="1280.000000pt" viewBox="0 0 1161.000000 1280.000000"
 preserveAspectRatio="xMidYMid meet">
<g transform="translate(0.000000,1280.000000) scale(0.100000,-0.100000)"
fill="#000000" stroke="none">
<path d="M5950 12794 c-677 -36 -1220 -143 -1760 -346 -1294 -488 -2240 -1502
-2574 -2758 -48 -180 -86 -387 -101 -545 -12 -135 22 -343 80 -490 l27 -66
-54 -82 c-90 -137 -287 -394 -607 -792 -594 -737 -747 -948 -871 -1197 -173
-350 -111 -484 325 -706 91 -47 113 -54 247 -76 88 -14 166 -33 194 -46 66
-33 111 -80 119 -129 8 -49 3 -77 -40 -211 -19 -58 -37 -125 -41 -150 -8 -59
-39 -117 -108 -210 -87 -117 -110 -169 -103 -239 9 -102 48 -156 200 -275 134
-105 134 -98 -35 -291 -74 -84 -98 -128 -98 -175 0 -43 7 -54 111 -172 173
-198 231 -307 232 -438 0 -69 -8 -101 -100 -380 -120 -364 -137 -442 -131
-594 5 -130 27 -193 104 -307 167 -246 382 -393 702 -480 75 -20 103 -21 1017
-28 l939 -6 46 -56 c153 -191 288 -645 401 -1343 l33 -206 174 0 c95 0 171 4
168 8 -3 5 -10 80 -16 166 -36 515 119 979 453 1356 397 449 923 664 1533 629
276 -16 469 -67 709 -185 345 -170 640 -467 815 -819 79 -160 120 -277 157
-455 25 -115 27 -145 27 -370 1 -135 -2 -264 -7 -287 l-7 -43 1125 0 c619 0
1125 2 1125 4 0 2 -22 113 -49 247 -151 742 -296 1657 -371 2329 -43 395 -62
870 -41 1055 19 168 97 395 220 637 116 228 153 286 622 973 251 367 332 516
447 820 389 1035 510 2035 356 2965 -180 1088 -757 2031 -1650 2692 -918 680
-2172 1057 -3564 1072 -173 2 -344 2 -380 0z"/>
</g>
</svg>
