<?xml version="1.0" standalone="no"?>
<!DOCTYPE svg PUBLIC "-//W3C//DTD SVG 20010904//EN"
 "http://www.w3.org/TR/2001/REC-SVG-20010904/DTD/svg10.dtd">
<svg version="1.0" xmlns="http://www.w3.org/2000/svg"
 width="1280.000000pt" height="640.000000pt" viewBox="0 0 1280.000000 640.000000"
 preserveAspectRatio="xMidYMid meet">
<g transform="translate(0.000000,640.000000) scale(0.100000,-0.100000)"
fill="#000000" stroke="none">
<path d="M5825 4812 c-76 -48 -95 -102 -95 -266 0 -120 23 -567 36 -699 l7
-69 -32 17 c-80 41 -186 27 -251 -32 -47 -42 -65 -96 -55 -167 5 -44 4 -48
-12 -41 -97 40 -191 13 -229 -65 -30 -61 -29 -117 4 -251 27 -109 32 -146 36
-304 6 -276 53 -499 141 -682 30 -61 57 -102 80 -120 l35 -28 0 -262 c0 -144
3 -264 8 -266 4 -3 205 -2 447 2 l440 6 -4 268 -4 267 34 0 c94 0 199 102 331
322 62 103 65 106 293 302 127 109 243 212 258 230 97 107 103 265 13 329 -41
29 -132 30 -196 0 -25 -11 -146 -92 -270 -180 -194 -138 -228 -159 -246 -150
-35 15 -44 51 -44 181 0 154 18 334 77 781 57 433 62 581 23 660 -32 65 -81
99 -133 92 -82 -11 -141 -91 -177 -243 -17 -72 -29 -155 -75 -544 -31 -261
-66 -430 -90 -430 -36 0 -52 110 -65 450 -28 722 -42 819 -128 884 -37 28
-119 32 -157 8z"/>
<path d="M8445 4811 c-77 -47 -94 -95 -95 -262 0 -179 33 -651 65 -927 15
-126 10 -172 -19 -172 -31 0 -39 37 -72 328 -18 164 -42 370 -54 457 -11 88
-23 178 -26 200 -14 120 -142 181 -236 113 -32 -22 -48 -48 -59 -98 -13 -57
19 -424 61 -695 21 -137 38 -251 36 -252 -1 -2 -20 6 -41 17 -50 26 -108 25
-161 -1 -96 -46 -107 -157 -39 -394 27 -95 39 -162 46 -250 11 -148 40 -321
74 -440 35 -123 107 -268 150 -302 l35 -28 0 -263 c0 -201 3 -264 13 -267 6
-2 208 -1 447 3 l435 7 -4 267 -4 268 34 0 c94 0 199 102 331 322 62 104 65
106 298 307 240 208 278 246 311 316 24 52 25 139 1 185 -27 51 -93 83 -156
76 -73 -8 -128 -39 -366 -210 -187 -133 -218 -152 -237 -143 -41 18 -46 54
-40 250 6 187 21 326 84 792 24 184 36 311 37 400 1 120 -1 134 -24 180 -64
128 -189 122 -263 -12 -41 -77 -63 -190 -107 -548 -41 -346 -62 -478 -85 -532
-17 -41 -29 -42 -44 -4 -21 49 -30 137 -41 411 -25 632 -38 763 -81 839 -40
73 -139 103 -204 62z"/>
<path d="M11254 4811 c-50 -30 -64 -81 -64 -229 0 -213 34 -762 64 -1037 15
-140 8 -182 -30 -191 -55 -14 -59 0 -93 371 -46 496 -84 791 -108 824 -30 41
-81 63 -134 58 -61 -5 -103 -36 -125 -92 -15 -41 -16 -63 -5 -253 10 -167 24
-275 72 -561 33 -194 58 -355 56 -357 -2 -2 -13 31 -25 74 -39 147 -170 489
-244 637 -44 88 -63 105 -116 105 -38 0 -50 -5 -83 -39 -32 -32 -39 -46 -39
-79 0 -63 44 -197 155 -477 139 -350 140 -352 125 -478 -35 -314 86 -835 222
-951 l38 -33 0 -261 c0 -143 3 -263 8 -265 4 -3 204 -3 445 1 l437 5 0 269 0
268 25 0 c97 0 205 105 338 330 55 93 63 101 287 294 248 214 278 244 312 309
31 58 32 164 2 203 -53 71 -129 88 -226 51 -26 -10 -151 -92 -278 -182 -220
-155 -233 -163 -261 -153 -16 5 -39 22 -50 36 -20 26 -21 35 -16 172 7 169 25
304 102 755 51 300 56 341 53 450 -4 136 -20 184 -72 217 -39 24 -89 18 -124
-14 -71 -66 -103 -171 -157 -504 -81 -506 -117 -646 -157 -606 -31 31 -41 144
-68 802 -10 238 -27 384 -50 445 -34 90 -140 132 -216 86z"/>
<path d="M3895 4678 c-65 -36 -101 -92 -134 -209 -15 -54 -115 -680 -121 -758
-1 -3 -7 12 -15 34 -24 70 -109 125 -192 125 -52 0 -135 -50 -168 -102 -31
-49 -45 -59 -45 -33 0 24 -77 73 -127 81 -96 14 -200 -33 -230 -103 -15 -38
-20 -115 -9 -150 7 -22 6 -22 -24 -6 -18 8 -53 15 -79 15 -146 0 -195 -123
-136 -338 24 -86 28 -120 30 -259 5 -362 105 -735 225 -837 l40 -35 0 -261 c0
-143 3 -263 8 -265 4 -3 203 -2 442 2 l435 6 0 268 -1 267 31 0 c100 1 197 97
343 340 48 81 65 98 293 295 133 115 254 226 270 248 90 125 67 280 -48 318
-86 28 -156 -4 -431 -200 -117 -83 -221 -151 -231 -151 -10 0 -26 10 -37 21
-17 19 -19 37 -18 178 1 178 8 244 71 726 38 286 47 379 47 510 1 148 -1 163
-22 203 -37 69 -112 101 -167 70z"/>
<path d="M810 3882 c-58 -8 -92 -26 -135 -74 -25 -28 -48 -61 -51 -74 -7 -29
-5 -29 -57 -2 -58 29 -147 29 -204 0 -51 -27 -90 -81 -99 -139 -6 -39 -8 -41
-27 -31 -32 17 -122 12 -157 -9 -81 -47 -98 -171 -47 -329 25 -74 27 -98 31
-275 4 -208 22 -345 71 -514 35 -123 107 -268 150 -302 l35 -28 0 -262 c0
-144 3 -264 7 -266 5 -3 206 -2 448 2 l440 6 -4 268 -4 267 34 0 c94 0 199
102 331 322 63 104 65 106 298 307 236 203 301 273 320 340 25 89 4 173 -54
214 -41 29 -132 30 -196 0 -25 -11 -147 -93 -272 -182 l-228 -161 -66 0 c-75
0 -104 12 -104 42 0 23 82 461 104 551 24 101 -11 184 -97 229 -59 30 -157 30
-215 0 l-43 -22 -8 23 c-23 58 -126 109 -201 99z"/>
</g>
</svg>
