<?xml version="1.0" standalone="no"?>
<!DOCTYPE svg PUBLIC "-//W3C//DTD SVG 20010904//EN"
 "http://www.w3.org/TR/2001/REC-SVG-20010904/DTD/svg10.dtd">
<svg version="1.0" xmlns="http://www.w3.org/2000/svg"
 width="810.000000pt" height="1280.000000pt" viewBox="0 0 810.000000 1280.000000"
 preserveAspectRatio="xMidYMid meet">
<g transform="translate(0.000000,1280.000000) scale(0.100000,-0.100000)"
fill="#000000" stroke="none">
<path d="M4025 12334 c-882 -32 -1665 -314 -2267 -815 -730 -608 -1220 -1579
-1318 -2613 -44 -464 49 -968 288 -1566 168 -422 393 -861 842 -1640 226 -392
315 -576 395 -813 62 -186 84 -308 96 -537 11 -217 23 -338 43 -414 51 -191
196 -460 334 -620 60 -69 72 -97 72 -174 0 -18 7 -46 15 -63 14 -26 14 -42 1
-152 -37 -303 -32 -385 26 -439 32 -30 47 -76 48 -145 0 -58 -7 -72 -47 -88
-39 -16 -68 -73 -58 -112 3 -14 29 -57 56 -96 47 -67 50 -76 46 -119 -3 -33
-13 -58 -33 -83 -84 -105 -87 -119 -36 -184 58 -73 72 -96 78 -137 10 -66 -3
-103 -52 -147 -55 -50 -71 -94 -50 -136 18 -34 52 -61 78 -61 38 0 48 -26 46
-128 -1 -77 2 -104 17 -132 42 -80 401 -413 464 -430 27 -7 52 -28 98 -82 34
-40 111 -121 170 -179 l108 -106 125 -41 c212 -68 265 -77 450 -76 122 1 179
5 220 18 30 9 127 35 215 57 l160 40 215 213 c118 117 242 232 275 256 79 57
449 423 468 463 19 39 10 66 -34 94 -64 41 -69 49 -69 111 0 62 8 76 73 116
42 26 67 74 67 128 0 51 -4 55 -65 78 -55 21 -82 74 -69 138 8 40 16 52 66 89
32 24 60 55 66 72 21 59 -19 141 -68 141 -24 0 -50 67 -50 127 0 44 3 49 65
107 56 53 65 66 65 96 0 41 -21 75 -78 128 -36 33 -42 45 -42 79 0 66 16 98
61 119 88 39 89 113 4 264 -21 38 -25 57 -25 131 0 133 5 148 58 171 30 14 41
23 32 28 -9 6 -5 12 16 23 93 48 267 300 350 504 32 81 35 98 49 292 28 381
67 650 129 893 76 294 128 402 499 1037 310 532 432 766 582 1116 310 724 438
1526 344 2150 -147 979 -839 1988 -1753 2558 -426 264 -870 423 -1336 476 -98
12 -393 20 -525 15z"/>
</g>
</svg>
