<?xml version="1.0" encoding="UTF-8" standalone="no"?>
<svg
   xmlns:dc="http://purl.org/dc/elements/1.1/"
   xmlns:cc="http://creativecommons.org/ns#"
   xmlns:rdf="http://www.w3.org/1999/02/22-rdf-syntax-ns#"
   xmlns:svg="http://www.w3.org/2000/svg"
   xmlns="http://www.w3.org/2000/svg"
   xmlns:sodipodi="http://sodipodi.sourceforge.net/DTD/sodipodi-0.dtd"
   xmlns:inkscape="http://www.inkscape.org/namespaces/inkscape"
   version="1.0"
   width="242pt"
   height="325pt"
   viewBox="0 0 242 325"
   preserveAspectRatio="xMidYMid meet"
   id="svg6"
   sodipodi:docname="fist-zero.svg"
   inkscape:version="0.92.3 (2405546, 2018-03-11)">
  <metadata
     id="metadata12">
    <rdf:RDF>
      <cc:Work
         rdf:about="">
        <dc:format>image/svg+xml</dc:format>
        <dc:type
           rdf:resource="http://purl.org/dc/dcmitype/StillImage" />
        <dc:title />
      </cc:Work>
    </rdf:RDF>
  </metadata>
  <defs
     id="defs10" />
  <sodipodi:namedview
     pagecolor="#ffffff"
     bordercolor="#666666"
     borderopacity="1"
     objecttolerance="10"
     gridtolerance="10"
     guidetolerance="10"
     inkscape:pageopacity="0"
     inkscape:pageshadow="2"
     inkscape:window-width="3440"
     inkscape:window-height="1377"
     id="namedview8"
     showgrid="false"
     inkscape:zoom="2.3201941"
     inkscape:cx="189.15062"
     inkscape:cy="229.77983"
     inkscape:window-x="-8"
     inkscape:window-y="-8"
     inkscape:window-maximized="1"
     inkscape:current-layer="svg6"
     units="mm"
     width="242mm" />
  <g
     transform="matrix(0.1,0,0,-0.1,21.942857,482.25714)"
     id="g4"
     style="fill:#000000;stroke:none">
    <path
       d="m 810,3882 c -58,-8 -92,-26 -135,-74 -25,-28 -48,-61 -51,-74 -7,-29 -5,-29 -57,-2 -58,29 -147,29 -204,0 -51,-27 -90,-81 -99,-139 -6,-39 -8,-41 -27,-31 -32,17 -122,12 -157,-9 -81,-47 -98,-171 -47,-329 25,-74 27,-98 31,-275 4,-208 22,-345 71,-514 35,-123 107,-268 150,-302 l 35,-28 v -262 c 0,-144 3,-264 7,-266 5,-3 206,-2 448,2 l 440,6 -4,268 -4,267 h 34 c 94,0 114.9553,66.4426 246.9553,286.4426 63,104 -28.7421,-87.9493 42.6334,142.1431 103.468,277.3473 10.0761,46.7259 29.0761,113.7259 25,89 18.1117,227.9523 -39.8883,268.9523 v 0 c -68.1968,138.6407 -94.0567,151.5707 -94.0567,151.5707 v 0 l -148.6944,155.1594 c 0,0 9.137,-253.064 9.137,-223.064 0,23 65.8376,448.07 87.8376,538.07 24,101 -11,184 -97,229 -59,30 -157,30 -215,0 l -43,-22 -8,23 c -23,58 -126,109 -201,99 z"
       id="path2"
       inkscape:connector-curvature="0"
       sodipodi:nodetypes="cccccccccccccscccccscccccccsscccccc" />
  </g>
</svg>
