<?xml version="1.0" encoding="UTF-8" standalone="no"?>
<svg
   xmlns:dc="http://purl.org/dc/elements/1.1/"
   xmlns:cc="http://creativecommons.org/ns#"
   xmlns:rdf="http://www.w3.org/1999/02/22-rdf-syntax-ns#"
   xmlns:svg="http://www.w3.org/2000/svg"
   xmlns="http://www.w3.org/2000/svg"
   xmlns:sodipodi="http://sodipodi.sourceforge.net/DTD/sodipodi-0.dtd"
   xmlns:inkscape="http://www.inkscape.org/namespaces/inkscape"
   version="1.0"
   width="242pt"
   height="325pt"
   viewBox="0 0 242 325"
   preserveAspectRatio="xMidYMid meet"
   id="svg6"
   sodipodi:docname="fist-two.svg"
   inkscape:version="0.92.3 (2405546, 2018-03-11)">
  <metadata
     id="metadata12">
    <rdf:RDF>
      <cc:Work
         rdf:about="">
        <dc:format>image/svg+xml</dc:format>
        <dc:type
           rdf:resource="http://purl.org/dc/dcmitype/StillImage" />
        <dc:title></dc:title>
      </cc:Work>
    </rdf:RDF>
  </metadata>
  <defs
     id="defs10" />
  <sodipodi:namedview
     pagecolor="#ffffff"
     bordercolor="#666666"
     borderopacity="1"
     objecttolerance="10"
     gridtolerance="10"
     guidetolerance="10"
     inkscape:pageopacity="0"
     inkscape:pageshadow="2"
     inkscape:window-width="3440"
     inkscape:window-height="1377"
     id="namedview8"
     showgrid="false"
     inkscape:zoom="2.3201941"
     inkscape:cx="407.839"
     inkscape:cy="211.41757"
     inkscape:window-x="-8"
     inkscape:window-y="-8"
     inkscape:window-maximized="1"
     inkscape:current-layer="svg6" />
  <g
     transform="matrix(0.1,0,0,-0.1,-236.29488,482.42216)"
     id="g4"
     style="fill:#000000;stroke:none">
    <path
       d="m 3895,4678 c -65,-36 -101,-92 -134,-209 -15,-54 -115,-680 -121,-758 -1,-3 -7,12 -15,34 -24,70 -109,125 -192,125 -52,0 -135,-50 -168,-102 -31,-49 -45,-59 -45,-33 0,24 -77,73 -127,81 -96,14 -200,-33 -230,-103 -15,-38 -20,-115 -9,-150 7,-22 6,-22 -24,-6 -18,8 -53,15 -79,15 -146,0 -195,-123 -136,-338 24,-86 28,-120 30,-259 5,-362 105,-735 225,-837 l 40,-35 v -261 c 0,-143 3,-263 8,-265 4,-3 203,-2 442,2 l 435,6 v 268 l -1,267 h 31 c 100,1 197,97 343,340 48,81 65,98 293,295 133,115 254,226 270,248 90,125 67,280 -48,318 -86,28 -156,-4 -431,-200 -117,-83 -221,-151 -231,-151 -10,0 -26,10 -37,21 -17,19 -19,37 -18,178 1,178 8,244 71,726 38,286 47,379 47,510 1,148 -1,163 -22,203 -37,69 -112,101 -167,70 z"
       id="path2"
       inkscape:connector-curvature="0" />
  </g>
</svg>
