<?xml version="1.0" encoding="UTF-8" standalone="no"?>
<svg
   xmlns:dc="http://purl.org/dc/elements/1.1/"
   xmlns:cc="http://creativecommons.org/ns#"
   xmlns:rdf="http://www.w3.org/1999/02/22-rdf-syntax-ns#"
   xmlns:svg="http://www.w3.org/2000/svg"
   xmlns="http://www.w3.org/2000/svg"
   xmlns:sodipodi="http://sodipodi.sourceforge.net/DTD/sodipodi-0.dtd"
   xmlns:inkscape="http://www.inkscape.org/namespaces/inkscape"
   version="1.0"
   width="242pt"
   height="325pt"
   viewBox="0 0 242 325"
   preserveAspectRatio="xMidYMid meet"
   id="svg6"
   sodipodi:docname="fist-five.svg"
   inkscape:version="0.92.3 (2405546, 2018-03-11)">
  <metadata
     id="metadata12">
    <rdf:RDF>
      <cc:Work
         rdf:about="">
        <dc:format>image/svg+xml</dc:format>
        <dc:type
           rdf:resource="http://purl.org/dc/dcmitype/StillImage" />
        <dc:title></dc:title>
      </cc:Work>
    </rdf:RDF>
  </metadata>
  <defs
     id="defs10" />
  <sodipodi:namedview
     pagecolor="#ffffff"
     bordercolor="#666666"
     borderopacity="1"
     objecttolerance="10"
     gridtolerance="10"
     guidetolerance="10"
     inkscape:pageopacity="0"
     inkscape:pageshadow="2"
     inkscape:window-width="3440"
     inkscape:window-height="1377"
     id="namedview8"
     showgrid="false"
     inkscape:zoom="1.6406251"
     inkscape:cx="527.31314"
     inkscape:cy="219.00702"
     inkscape:window-x="-8"
     inkscape:window-y="-8"
     inkscape:window-maximized="1"
     inkscape:current-layer="svg6" />
  <g
     transform="matrix(0.1,0,0,-0.1,-1037.6287,482.74542)"
     id="g4"
     style="fill:#000000;stroke:none">
    <path
       d="m 11254,4811 c -50,-30 -64,-81 -64,-229 0,-213 34,-762 64,-1037 15,-140 8,-182 -30,-191 -55,-14 -59,0 -93,371 -46,496 -84,791 -108,824 -30,41 -81,63 -134,58 -61,-5 -103,-36 -125,-92 -15,-41 -16,-63 -5,-253 10,-167 24,-275 72,-561 33,-194 58,-355 56,-357 -2,-2 -13,31 -25,74 -39,147 -170,489 -244,637 -44,88 -63,105 -116,105 -38,0 -50,-5 -83,-39 -32,-32 -39,-46 -39,-79 0,-63 44,-197 155,-477 139,-350 140,-352 125,-478 -35,-314 86,-835 222,-951 l 38,-33 v -261 c 0,-143 3,-263 8,-265 4,-3 204,-3 445,1 l 437,5 v 269 268 h 25 c 97,0 205,105 338,330 55,93 63,101 287,294 248,214 278,244 312,309 31,58 32,164 2,203 -53,71 -129,88 -226,51 -26,-10 -151,-92 -278,-182 -220,-155 -233,-163 -261,-153 -16,5 -39,22 -50,36 -20,26 -21,35 -16,172 7,169 25,304 102,755 51,300 56,341 53,450 -4,136 -20,184 -72,217 -39,24 -89,18 -124,-14 -71,-66 -103,-171 -157,-504 -81,-506 -117,-646 -157,-606 -31,31 -41,144 -68,802 -10,238 -27,384 -50,445 -34,90 -140,132 -216,86 z"
       id="path2"
       inkscape:connector-curvature="0" />
  </g>
</svg>
