<?xml version="1.0" encoding="UTF-8" standalone="no"?>
<svg
   xmlns:dc="http://purl.org/dc/elements/1.1/"
   xmlns:cc="http://creativecommons.org/ns#"
   xmlns:rdf="http://www.w3.org/1999/02/22-rdf-syntax-ns#"
   xmlns:svg="http://www.w3.org/2000/svg"
   xmlns="http://www.w3.org/2000/svg"
   xmlns:sodipodi="http://sodipodi.sourceforge.net/DTD/sodipodi-0.dtd"
   xmlns:inkscape="http://www.inkscape.org/namespaces/inkscape"
   version="1.0"
   width="242pt"
   height="325pt"
   viewBox="0 0 242 325"
   preserveAspectRatio="xMidYMid meet"
   id="svg6"
   sodipodi:docname="thinking.svg"
   inkscape:version="0.92.3 (2405546, 2018-03-11)">
  <metadata
     id="metadata12">
    <rdf:RDF>
      <cc:Work
         rdf:about="">
        <dc:format>image/svg+xml</dc:format>
        <dc:type
           rdf:resource="http://purl.org/dc/dcmitype/StillImage" />
        <dc:title></dc:title>
      </cc:Work>
    </rdf:RDF>
  </metadata>
  <defs
     id="defs10" />
  <sodipodi:namedview
     pagecolor="#ffffff"
     bordercolor="#666666"
     borderopacity="1"
     objecttolerance="10"
     gridtolerance="10"
     guidetolerance="10"
     inkscape:pageopacity="0"
     inkscape:pageshadow="2"
     inkscape:window-width="3440"
     inkscape:window-height="1377"
     id="namedview8"
     showgrid="false"
     inkscape:zoom="2.2125"
     inkscape:cx="185.91619"
     inkscape:cy="199.42006"
     inkscape:window-x="-8"
     inkscape:window-y="-8"
     inkscape:window-maximized="1"
     inkscape:current-layer="svg6" />
  <g
     transform="matrix(0.02068834,0,0,-0.02068834,0.03802008,324.99998)"
     id="g4"
     style="fill:#000000;stroke:none">
    <path
       d="m 5950,12794 c -677,-36 -1220,-143 -1760,-346 -1294,-488 -2240,-1502 -2574,-2758 -48,-180 -86,-387 -101,-545 -12,-135 22,-343 80,-490 l 27,-66 -54,-82 C 1478,8370 1281,8113 961,7715 367,6978 214,6767 90,6518 -83,6168 -21,6034 415,5812 c 91,-47 113,-54 247,-76 88,-14 166,-33 194,-46 66,-33 111,-80 119,-129 8,-49 3,-77 -40,-211 -19,-58 -37,-125 -41,-150 -8,-59 -39,-117 -108,-210 -87,-117 -110,-169 -103,-239 9,-102 48,-156 200,-275 134,-105 134,-98 -35,-291 -74,-84 -98,-128 -98,-175 0,-43 7,-54 111,-172 173,-198 231,-307 232,-438 0,-69 -8,-101 -100,-380 -120,-364 -137,-442 -131,-594 5,-130 27,-193 104,-307 167,-246 382,-393 702,-480 75,-20 103,-21 1017,-28 l 939,-6 46,-56 C 3823,1358 3958,904 4071,206 L 4104,0 h 174 c 95,0 -171,-4 -174,0 -3,5 0,0 0,0 v 0 0 c 276,-16 -240,118 0,0 345,-170 -1,352 174,0 79,-160 -211,178 -174,0 25,-115 0,225 0,0 1,-135 4006,0 4013,43 l -7,-43 h 1125 c 0,0 1125,2 1125,4 0,2 -22,113 -49,247 -151,742 -296,1657 -371,2329 -43,395 -62,870 -41,1055 19,168 97,395 220,637 116,228 153,286 622,973 251,367 332,516 447,820 389,1035 510,2035 356,2965 -180,1088 -757,2031 -1650,2692 -918,680 -2172,1057 -3564,1072 -173,2 -344,2 -380,0 z"
       id="path2"
       inkscape:connector-curvature="0"
       sodipodi:nodetypes="ccccccccccccsccccccscccccccccccsccccccccccsscccccccccc" />
  </g>
  <text
     xml:space="preserve"
     style="font-style:normal;font-weight:normal;font-size:199.56025696px;line-height:1.25;font-family:sans-serif;letter-spacing:0px;word-spacing:0px;fill:#ffffff;fill-opacity:1;stroke:none;stroke-width:4.98900652"
     x="67.092094"
     y="246.69489"
     id="text16"><tspan
       sodipodi:role="line"
       id="tspan14"
       x="67.092094"
       y="246.69489"
       style="fill:#ffffff;stroke-width:4.98900652">?</tspan></text>
</svg>
